<svg width="1818" height="139" viewBox="0 0 1818 139" fill="none" xmlns="http://www.w3.org/2000/svg">
<path d="M0 25.8403L137.552 8.7273C184.087 2.93788 231.205 3.7236 277.521 11.0613L443.897 37.4202C500.335 46.3617 557.888 45.5625 614.056 35.0574L701.305 18.7396C758.323 8.07552 816.762 7.41459 874.006 16.7863L1033.73 42.9355C1066.21 48.2533 1099.14 50.3507 1132.04 49.1972L1356.56 41.3242L1539.28 13.9327C1589.3 6.43528 1640.16 6.56913 1690.13 14.3297L1818 34.1864V116.094L0 119.465V25.8403Z" fill="url(#paint0_linear_27_851)" fill-opacity="0.5"/>
<path d="M0 55.2242L152.261 32.2716C209.807 23.5968 268.427 25.035 325.479 36.5218L391.066 49.7268C458.227 63.2489 527.522 62.0474 594.174 46.2053V46.2053C661.828 30.125 732.193 29.1319 800.274 43.2964L825.814 48.6101C894.393 62.8782 966.038 62.3966 1034.49 47.5462V47.5462C1094.19 34.5964 1156.48 32.5373 1216.86 41.7775L1273.92 50.5108C1336.44 60.0778 1400.2 57.6976 1461.83 43.4964L1492.56 36.415C1547.53 23.7503 1604.23 20.4761 1660.29 26.7309L1818 44.3296V139H0V55.2242Z" fill="url(#paint1_linear_27_851)"/>
<path d="M0 27.8003L175.709 49.5541C219.14 54.931 263.089 54.5829 306.429 48.5187L400.348 35.3773C436.342 30.341 472.778 29.2442 509.009 32.1063L646.53 42.9698C673.333 45.0872 700.263 45.0391 727.058 42.8262L856.672 32.1219C891.462 29.2487 926.457 30.0268 961.084 34.4433L1074.8 48.9477C1117.28 54.3645 1160.27 54.3039 1202.72 48.7673L1315.95 34.0017C1347.58 29.8769 1379.53 28.7882 1411.37 30.7506L1590.12 41.7687L1818 27.8003V139H0V27.8003Z" fill="url(#paint2_linear_27_851)" fill-opacity="0.8"/>
<defs>
<linearGradient id="paint0_linear_27_851" x1="-95.385" y1="58.7961" x2="2207.75" y2="58.7961" gradientUnits="userSpaceOnUse">
<stop stop-color="#0052D4"/>
<stop offset="0.5" stop-color="#4364F7"/>
<stop offset="1" stop-color="#6FB1FC"/>
</linearGradient>
<linearGradient id="paint1_linear_27_851" x1="0" y1="78.1403" x2="1818" y2="78.1403" gradientUnits="userSpaceOnUse">
<stop stop-color="#0052D4"/>
<stop offset="0.5" stop-color="#4364F7"/>
<stop offset="1" stop-color="#6FB1FC"/>
</linearGradient>
<linearGradient id="paint2_linear_27_851" x1="0" y1="83.4002" x2="1818" y2="83.4002" gradientUnits="userSpaceOnUse">
<stop stop-color="#AD2BDB"/>
<stop offset="0.5" stop-color="#7F6AFF"/>
<stop offset="1" stop-color="#6FB1FC"/>
</linearGradient>
</defs>
</svg>
